Coordinates
version=1
nRows=24
nColumns=38
inDegrees=no

Units are S.I. units (second, meters, Newtons, ...)
If the header above contains a line with 'inDegrees', this indicates whether rotational values are in degrees (yes) or radians (no).

endheader
time	pelvis_tilt	pelvis_list	pelvis_rotation	pelvis_tx	pelvis_ty	pelvis_tz	hip_flexion_r	hip_adduction_r	hip_rotation_r	knee_angle_r	ankle_angle_r	subtalar_angle_r	mtp_angle_r	hip_flexion_l	hip_adduction_l	hip_rotation_l	knee_angle_l	ankle_angle_l	subtalar_angle_l	mtp_angle_l	lumbar_extension	lumbar_bending	lumbar_rotation	arm_flex_r	arm_add_r	arm_rot_r	elbow_flex_r	pro_sup_r	wrist_flex_r	wrist_dev_r	arm_flex_l	arm_add_l	arm_rot_l	elbow_flex_l	pro_sup_l	wrist_flex_l	wrist_dev_l
0	0.996805	1.46644	0.716627	0.675078	-0.746665	0.926139	0.463294	-0.00684093	-0.138742	0.545496	-0.273916	0	0	-0.177074	-0.170665	-0.151272	0.619015	-0.313235	0	0	-0.00772366	0.112951	-0.121316	-0.0673335	-0.254815	0.173093	0.623894	1.5708	0	0	0.0850571	-0.231044	0.45172	0.728069	1.5708	0	0
0.01	1.05182	1.46488	0.655777	0.67757	-0.735088	0.927605	0.449062	0.00580848	-0.138687	0.54581	-0.27159	0	0	-0.16469	-0.180415	-0.145332	0.667394	-0.330077	0	0	-0.00445587	0.115976	-0.115773	-0.0696998	-0.254522	0.177031	0.622117	1.5708	0	0	0.0767134	-0.230377	0.455559	0.717372	1.5708	0	0
0.02	1.09175	1.46243	0.610921	0.679968	-0.723659	0.928974	0.434654	0.0166817	-0.141769	0.544249	-0.267998	0	0	-0.147084	-0.189591	-0.136106	0.719474	-0.351282	0	0	-0.00350568	0.1198	-0.111088	-0.0727844	-0.255239	0.17897	0.626224	1.5708	0	0	0.0668502	-0.23103	0.456285	0.71194	1.5708	0	0
0.03	1.12108	1.45972	0.577453	0.682169	-0.7124	0.930187	0.4203	0.0256586	-0.146947	0.543396	-0.261625	0	0	-0.125384	-0.197476	-0.123875	0.774373	-0.373944	0	0	-0.00271882	0.123604	-0.106854	-0.0765432	-0.257018	0.180873	0.633333	1.5708	0	0	0.0566568	-0.231448	0.454555	0.708366	1.5708	0	0
0.04	1.13405	1.45665	0.559911	0.684333	-0.70149	0.931129	0.40796	0.0334083	-0.152163	0.544386	-0.252876	0	0	-0.0994424	-0.203458	-0.109726	0.831828	-0.393038	0	0	-0.0011694	0.126849	-0.101686	-0.0805533	-0.25953	0.182693	0.642564	1.5708	0	0	0.0467282	-0.232531	0.453039	0.706443	1.5708	0	0
0.05	1.12723	1.45312	0.561838	0.686373	-0.690973	0.931803	0.398375	0.0400208	-0.156806	0.546149	-0.243453	0	0	-0.069095	-0.207642	-0.0953867	0.891512	-0.405055	0	0	0.00191431	0.129411	-0.0954787	-0.0842676	-0.262329	0.183527	0.652317	1.5708	0	0	0.0377174	-0.233788	0.452995	0.705212	1.5708	0	0
0.06	1.12775	1.45054	0.557965	0.688081	-0.680731	0.932623	0.386539	0.0460765	-0.159013	0.544908	-0.235154	0	0	-0.0386517	-0.211097	-0.0813786	0.951229	-0.41079	0	0	0.00335232	0.131734	-0.0897171	-0.087152	-0.265284	0.183877	0.661589	1.5708	0	0	0.0293364	-0.236098	0.455701	0.704861	1.5708	0	0
0.07	1.13107	1.44849	0.552182	0.68957	-0.670703	0.933549	0.374065	0.0518802	-0.159677	0.541707	-0.228111	0	0	-0.00754889	-0.214068	-0.0686674	1.01098	-0.413491	0	0	0.00408897	0.133853	-0.0839458	-0.0893585	-0.268339	0.184153	0.670108	1.5708	0	0	0.0228958	-0.237316	0.45808	0.703022	1.5708	0	0
0.08	1.13136	1.44712	0.550101	0.690963	-0.66085	0.934563	0.362042	0.0568484	-0.160073	0.537911	-0.222777	0	0	0.0243508	-0.216007	-0.0569903	1.06953	-0.41704	0	0	0.00465934	0.13495	-0.0783939	-0.0899329	-0.27051	0.18403	0.67597	1.5708	0	0	0.0175785	-0.238321	0.460048	0.700344	1.5708	0	0
0.09	1.12856	1.44625	0.551616	0.692312	-0.651196	0.935707	0.350054	0.0612569	-0.158962	0.533152	-0.218524	0	0	0.0568899	-0.217305	-0.046929	1.12606	-0.422488	0	0	0.00518849	0.13508	-0.0727276	-0.0886401	-0.271547	0.183371	0.678442	1.5708	0	0	0.0131752	-0.238759	0.460503	0.696902	1.5708	0	0
0.1	1.12267	1.44643	0.557486	0.693589	-0.641615	0.936939	0.336857	0.064416	-0.157217	0.526881	-0.214529	0	0	0.0893378	-0.217252	-0.0383769	1.17866	-0.418347	0	0	0.00563994	0.133396	-0.0680472	-0.0854198	-0.271129	0.182662	0.677119	1.5708	0	0	0.00840284	-0.240807	0.461587	0.695023	1.5708	0	0
0.11	1.11666	1.44726	0.563745	0.694853	-0.632105	0.938275	0.321843	0.0674654	-0.153596	0.518141	-0.210331	0	0	0.1207	-0.216018	-0.0311991	1.22576	-0.401991	0	0	0.00574472	0.130679	-0.0633956	-0.0808416	-0.270259	0.183047	0.673331	1.5708	0	0	0.0031994	-0.244202	0.4626	0.694916	1.5708	0	0
0.12	1.11588	1.44883	0.564903	0.696075	-0.622599	0.939751	0.304268	0.0705789	-0.149196	0.506981	-0.205799	0	0	0.149914	-0.213223	-0.0233659	1.26686	-0.376724	0	0	0.0050367	0.12748	-0.0589019	-0.0749656	-0.269196	0.184365	0.667742	1.5708	0	0	-0.00176979	-0.246995	0.461641	0.694166	1.5708	0	0
0.13	1.38721	1.47076	0.298836	0.698385	-0.615217	0.943829	0.249014	0.0690558	-0.14699	0.493781	-0.198523	0	0	0.142875	-0.205936	-0.0159739	1.29887	-0.354943	0	0	-0.0435514	0.114344	-0.0563865	-0.0570996	-0.26396	0.187896	0.666485	1.5708	0	0	0.000317996	-0.262413	0.459063	0.713126	1.5708	0	0
0.14	1.44285	1.47522	0.243021	0.699426	-0.60573	0.945627	0.224022	0.070391	-0.145176	0.480497	-0.195339	0	0	0.164245	-0.202029	-0.0149401	1.32881	-0.3358	0	0	-0.0505256	0.109414	-0.0518526	-0.0497465	-0.26423	0.192393	0.662172	1.5708	0	0	-0.00460277	-0.26619	0.456695	0.714684	1.5708	0	0
0.15	1.2827	1.47463	0.399491	0.700738	-0.594916	0.945767	0.221826	0.0708507	-0.139803	0.469527	-0.191425	0	0	0.206197	-0.197429	-0.0174151	1.35469	-0.316881	0	0	-0.0287483	0.102774	-0.0466588	-0.0457905	-0.262782	0.198964	0.649403	1.5708	0	0	-0.0162115	-0.267124	0.452409	0.709677	1.5708	0	0
0.16	1.16435	1.46646	0.514504	0.700007	-0.585455	0.945772	0.222104	0.0738798	-0.138249	0.461026	-0.190876	0	0	0.250308	-0.193926	-0.0136058	1.3806	-0.299527	0	0	-0.0101146	0.107717	-0.0416282	-0.0431353	-0.270958	0.206493	0.648003	1.5708	0	0	-0.0229141	-0.259469	0.446785	0.699769	1.5708	0	0
0.17	1.18374	1.47315	0.494094	0.700737	-0.576338	0.947072	0.202145	0.0710204	-0.141698	0.453575	-0.187722	0	0	0.271985	-0.187354	-0.015105	1.39518	-0.288969	0	0	-0.0155401	0.10108	-0.0379685	-0.0349461	-0.272676	0.213609	0.646536	1.5708	0	0	-0.0298652	-0.262793	0.438491	0.70545	1.5708	0	0
0.18	1.21308	1.48055	0.463313	0.701503	-0.567241	0.948381	0.180972	0.0677026	-0.146214	0.444899	-0.185083	0	0	0.291362	-0.181242	-0.0188776	1.40363	-0.279383	0	0	-0.0220432	0.0937893	-0.0341687	-0.0262983	-0.273846	0.220023	0.644953	1.5708	0	0	-0.0372387	-0.267056	0.429737	0.711707	1.5708	0	0
0.19	1.2472	1.48804	0.426559	0.702353	-0.558193	0.949616	0.160195	0.0642092	-0.149919	0.437081	-0.182555	0	0	0.309463	-0.176391	-0.0265151	1.4066	-0.27098	0	0	-0.0287724	0.0862484	-0.0293579	-0.0176893	-0.274603	0.225237	0.644069	1.5708	0	0	-0.044393	-0.271417	0.420638	0.717463	1.5708	0	0
0.2	1.29292	1.49571	0.377413	0.70323	-0.549133	0.950782	0.138519	0.0605353	-0.153207	0.428463	-0.180215	0	0	0.325681	-0.172681	-0.0378684	1.40409	-0.263134	0	0	-0.0361358	0.0785221	-0.0239898	-0.00946094	-0.275067	0.228994	0.644589	1.5708	0	0	-0.0507829	-0.275862	0.413574	0.722093	1.5708	0	0
0.21	1.36054	1.50324	0.305622	0.704146	-0.540039	0.95192	0.115513	0.0571828	-0.155091	0.418822	-0.178407	0	0	0.339387	-0.170294	-0.0521344	1.39648	-0.254798	0	0	-0.0444149	0.0709993	-0.0177409	-0.00169436	-0.275279	0.231106	0.646343	1.5708	0	0	-0.0564162	-0.279679	0.406723	0.726177	1.5708	0	0
0.22	1.4566	1.51028	0.205381	0.705027	-0.530874	0.952999	0.0915214	0.0539656	-0.156794	0.409072	-0.176539	0	0	0.350936	-0.169082	-0.0687265	1.38413	-0.247747	0	0	-0.0533802	0.063762	-0.0113326	0.00532996	-0.275181	0.23139	0.649497	1.5708	0	0	-0.062059	-0.282833	0.398357	0.730398	1.5708	0	0
0.23	1.5885	1.51617	0.0694402	0.705809	-0.521658	0.953967	0.0666207	0.0511201	-0.158186	0.398999	-0.174538	0	0	0.360441	-0.169943	-0.0888957	1.36769	-0.242034	0	0	-0.0629969	0.0570405	-0.00490269	0.011427	-0.274933	0.229707	0.654387	1.5708	0	0	-0.0677026	-0.285842	0.38934	0.73472	1.5708	0	0
